<svg width="30" height="30" viewBox="0 0 30 30" fill="none" xmlns="http://www.w3.org/2000/svg">
<path fill-rule="evenodd" clip-rule="evenodd" d="M13.4756 28.4141C13.4756 29.2425 14.1472 29.9141 14.9756 29.9141C15.804 29.9141 16.4756 29.2425 16.4756 28.4141V18.5425L23.4314 25.4983C24.0172 26.0841 24.9669 26.0841 25.5527 25.4983C26.1385 24.9125 26.1385 23.9628 25.5527 23.377L18.6138 16.438H28.4141C29.2425 16.438 29.9141 15.7664 29.9141 14.938C29.9141 14.1096 29.2425 13.438 28.4141 13.438H18.6168L25.5527 6.50213C26.1385 5.91634 26.1385 4.9666 25.5527 4.38081C24.9669 3.79502 24.0172 3.79502 23.4314 4.38081L16.4756 11.3366V1.5C16.4756 0.671574 15.804 0 14.9756 0C14.1472 0 13.4756 0.671574 13.4756 1.5V11.2999L6.5216 4.34587C5.93581 3.76008 4.98606 3.76008 4.40028 4.34587C3.81449 4.93166 3.81449 5.8814 4.40028 6.46719L11.3711 13.438H1.5C0.671573 13.438 0 14.1096 0 14.938C0 15.7664 0.671573 16.438 1.5 16.438H11.3742L4.40028 23.4119C3.81449 23.9977 3.81449 24.9475 4.40028 25.5333C4.98606 26.119 5.93581 26.119 6.5216 25.5333L13.4756 18.5793V28.4141Z" fill="#F8F8F8"/>
</svg>
