<svg width="315" height="178" viewBox="0 0 315 178" fill="none" xmlns="http://www.w3.org/2000/svg">
<g style="mix-blend-mode:exclusion">
<path d="M102.207 73.7031C98.125 73.7031 94.5996 72.8242 91.6309 71.0664C88.6621 69.2891 86.377 66.7695 84.7754 63.5078C83.1738 60.2266 82.373 56.3496 82.373 51.877V51.8184C82.373 47.3457 83.1738 43.4785 84.7754 40.2168C86.3965 36.9551 88.6914 34.4453 91.6602 32.6875C94.6289 30.9102 98.1445 30.0215 102.207 30.0215C106.25 30.0215 109.756 30.9102 112.725 32.6875C115.693 34.4648 117.979 36.9844 119.58 40.2461C121.182 43.4883 121.982 47.3457 121.982 51.8184V51.877C121.982 56.3496 121.182 60.2168 119.58 63.4785C117.979 66.7402 115.693 69.2598 112.725 71.0371C109.775 72.8145 106.27 73.7031 102.207 73.7031ZM102.207 67.873C104.902 67.873 107.227 67.2188 109.18 65.9102C111.133 64.6016 112.637 62.7461 113.691 60.3438C114.746 57.9414 115.273 55.1191 115.273 51.877V51.8184C115.273 48.5566 114.736 45.7344 113.662 43.3516C112.607 40.9492 111.094 39.1035 109.121 37.8145C107.168 36.5059 104.863 35.8516 102.207 35.8516C99.5312 35.8516 97.207 36.4961 95.2344 37.7852C93.2812 39.0742 91.7676 40.9199 90.6934 43.3223C89.6191 45.7051 89.082 48.5371 89.082 51.8184V51.877C89.082 55.1387 89.6191 57.9707 90.6934 60.373C91.7676 62.7754 93.2812 64.6309 95.2344 65.9395C97.1875 67.2285 99.5117 67.873 102.207 67.873ZM126.452 73V30.7246H142.888C145.759 30.7246 148.249 31.252 150.358 32.3066C152.468 33.3613 154.089 34.8555 155.221 36.7891C156.374 38.7227 156.95 41.0176 156.95 43.6738V43.7324C156.95 46.6035 156.218 49.1133 154.753 51.2617C153.307 53.4102 151.315 54.9141 148.776 55.7734L158.239 73H150.651L142.038 56.7988C141.96 56.7988 141.891 56.7988 141.833 56.7988C141.794 56.7988 141.735 56.7988 141.657 56.7988H133.014V73H126.452ZM133.014 51.3789H142.243C144.763 51.3789 146.716 50.7246 148.102 49.416C149.489 48.0879 150.182 46.2129 150.182 43.791V43.7324C150.182 41.4082 149.45 39.582 147.985 38.2539C146.54 36.9062 144.557 36.2324 142.038 36.2324H133.014V51.3789ZM161.507 73V30.7246H188.343V36.4082H168.07V48.7129H187.259V54.2207H168.07V67.3164H188.343V73H161.507Z" fill="white"/>
</g>
<g style="mix-blend-mode:difference">
<path d="M120 24.64L119.88 24.94C117.56 24.1 114.98 23.68 112.14 23.68C105.54 23.68 99.54 25.02 94.14 27.7C88.62 30.38 82.7 34.34 76.38 39.58C73.98 41.54 70.64 44.78 66.36 49.3C62.56 53.38 58.58 57.5 54.42 61.66C50.62 65.46 47.28 68.28 44.4 70.12L43.74 70.48C43.66 70.52 43.56 70.58 43.44 70.66C43.36 70.74 43.3 70.78 43.26 70.78L42.12 71.38C40.44 72.18 38.92 72.62 37.56 72.7L37.44 72.46C40.16 71.9 42.36 70.8 44.04 69.16C45.76 67.48 47.24 65.22 48.48 62.38C49.2 60.82 49.9 59.04 50.58 57.04C50.62 56.88 50.86 56.1 51.3 54.7C51.78 53.26 52.18 52.1 52.5 51.22C53.26 49.02 53.98 47.14 54.66 45.58C57.1 39.74 60.26 35.12 64.14 31.72C61.98 33.36 59.64 35.5 57.12 38.14C54.36 41.1 49.88 46.54 43.68 54.46C38.76 60.66 34.2 65.62 30 69.34C25.08 73.7 19.96 75.88 14.64 75.88H14.58C10.14 75.88 6.96 74.4 5.04 71.44C3.16 68.44 2.48 64.76 3 60.4C3.56 55.72 5.98 51.44 10.26 47.56C14.66 43.64 19.46 41.56 24.66 41.32C26.1 37.44 28.84 33.84 32.88 30.52C36.84 27.32 41.5 24.76 46.86 22.84C52.02 21 57.18 20.08 62.34 20.08C66.78 20.08 70.76 20.7 74.28 21.94C77.84 23.14 81.28 25.02 84.6 27.58C84.76 27.7 84.76 27.78 84.6 27.82C82.44 27.06 80.32 26.68 78.24 26.68C74.08 26.68 70.4 28.28 67.2 31.48C64 34.68 61.4 39.54 59.4 46.06C57.56 51.94 55.62 56.56 53.58 59.92C52.02 62.44 50.42 64.56 48.78 66.28C52.02 63.48 56.6 58.96 62.52 52.72C68.76 46.16 73.24 41.74 75.96 39.46C82.44 34.06 88.5 30.02 94.14 27.34C99.66 24.66 105.66 23.32 112.14 23.32C114.98 23.32 117.6 23.76 120 24.64ZM62.94 20.5C55.5 20.46 48.5 22.6 41.94 26.92C35.42 31.16 30.68 36.02 27.72 41.5C30.36 41.98 32.46 43.16 34.02 45.04C35.58 46.88 36.24 49.14 36 51.82C35.88 52.86 35.64 53.9 35.28 54.94C38.44 53.9 41.26 52.02 43.74 49.3C46.26 46.46 47.52 43.4 47.52 40.12C47.52 38.04 46.58 36.84 44.7 36.52L45 36.16C46.92 36.52 47.88 37.84 47.88 40.12C47.88 43.56 46.56 46.72 43.92 49.6C41.32 52.44 38.4 54.38 35.16 55.42C34.4 57.26 33.36 58.8 32.04 60.04C30.72 61.24 29.22 61.94 27.54 62.14H27.42L27.54 61.84C29.06 61.68 30.44 61.02 31.68 59.86C32.96 58.7 33.96 57.24 34.68 55.48C33.84 55.76 32.92 55.9 31.92 55.9C29.28 55.9 27.24 55.12 25.8 53.56C24.36 51.96 23.64 49.76 23.64 46.96C23.64 45.12 23.94 43.36 24.54 41.68C22.18 41.84 19.8 42.64 17.4 44.08C15 45.52 12.88 47.36 11.04 49.6C7.2 54.36 5.04 59.16 4.56 64C4.12 67.2 4.82 69.92 6.66 72.16C8.46 74.36 11.1 75.46 14.58 75.46H14.7C18.9 75.5 23 74.08 27 71.2C31 68.28 35.1 64.26 39.3 59.14C40.9 57.26 43.38 54.22 46.74 50.02C50.1 45.78 52.62 42.66 54.3 40.66C56.82 37.7 59.46 35.08 62.22 32.8C65.1 30.4 67.88 28.7 70.56 27.7C72.84 26.78 75.02 26.32 77.1 26.32C79.82 26.32 82.14 26.68 84.06 27.4C77.82 22.84 70.78 20.54 62.94 20.5ZM59.52 76.36C59.48 76.36 59.32 76.34 59.04 76.3C58.8 76.3 58.64 76.3 58.56 76.3C56.52 77.3 54.46 77.8 52.38 77.8C50.5 77.8 49.42 77.26 49.14 76.18C48.9 75.42 49.18 74.82 49.98 74.38C50.3 74.26 50.62 74.2 50.94 74.2C51.38 74.2 53.02 74.6 55.86 75.4C58.02 73.52 61.52 69.5 66.36 63.34C66.64 62.98 66.98 62.52 67.38 61.96C67.82 61.36 68.36 60.62 69 59.74C69.64 58.86 70.22 58.06 70.74 57.34C73.94 52.98 75.66 50.64 75.9 50.32C77.7 47.92 79.5 45.6 81.3 43.36C85.14 38.64 89.34 34.56 93.9 31.12C98.5 27.56 103.24 25.78 108.12 25.78L108.18 26.14C104.54 26.1 100.94 27.58 97.38 30.58C93.82 33.58 90.18 37.72 86.46 43C84.9 45.16 82.62 48.44 79.62 52.84C76.66 57.24 74.5 60.38 73.14 62.26C68.1 69.18 63.4 73.78 59.04 76.06H59.52C61.76 76.06 64.22 75.32 66.9 73.84C69.62 72.36 71.9 70.66 73.74 68.74C76.18 66.06 78.34 63.36 80.22 60.64L80.52 60.76C78.68 63.4 76.5 66.1 73.98 68.86C72.18 70.78 69.88 72.52 67.08 74.08C64.36 75.6 61.84 76.36 59.52 76.36ZM31.92 55.54C33 55.54 33.98 55.4 34.86 55.12C35.26 54.16 35.52 53.06 35.64 51.82C35.84 49.3 35.18 47.12 33.66 45.28C32.18 43.4 30.16 42.24 27.6 41.8C26.2 44.4 25.5 46.78 25.5 48.94C25.5 50.9 26.02 52.5 27.06 53.74C28.14 54.94 29.76 55.54 31.92 55.54ZM52.38 77.44C53.14 77.44 54.22 76.84 55.62 75.64C52.94 74.92 51.38 74.56 50.94 74.56C50.06 74.56 49.56 74.9 49.44 75.58C49.28 76.3 49.72 76.84 50.76 77.2C51.2 77.36 51.74 77.44 52.38 77.44Z" fill="white"/>
</g>
<g style="mix-blend-mode:exclusion">
<path d="M93.1777 120.557V115.049H104.018C106.85 115.049 109.047 114.316 110.609 112.852C112.191 111.367 112.982 109.316 112.982 106.699V106.641C112.982 103.984 112.191 101.924 110.609 100.459C109.047 98.9941 106.85 98.2617 104.018 98.2617H93.1777V92.7246H105.658C108.432 92.7246 110.863 93.3105 112.953 94.4824C115.062 95.6348 116.713 97.2559 117.904 99.3457C119.096 101.416 119.691 103.828 119.691 106.582V106.641C119.691 109.395 119.096 111.826 117.904 113.936C116.713 116.025 115.062 117.656 112.953 118.828C110.863 119.98 108.432 120.557 105.658 120.557H93.1777ZM89.8965 135V92.7246H96.459V135H89.8965ZM123.663 135V92.7246H140.098C142.97 92.7246 145.46 93.252 147.569 94.3066C149.679 95.3613 151.3 96.8555 152.432 98.7891C153.585 100.723 154.161 103.018 154.161 105.674V105.732C154.161 108.604 153.429 111.113 151.964 113.262C150.518 115.41 148.526 116.914 145.987 117.773L155.45 135H147.862L139.249 118.799C139.171 118.799 139.102 118.799 139.044 118.799C139.005 118.799 138.946 118.799 138.868 118.799H130.225V135H123.663ZM130.225 113.379H139.454C141.973 113.379 143.927 112.725 145.313 111.416C146.7 110.088 147.393 108.213 147.393 105.791V105.732C147.393 103.408 146.661 101.582 145.196 100.254C143.751 98.9062 141.768 98.2324 139.249 98.2324H130.225V113.379ZM177.029 135.703C172.947 135.703 169.421 134.824 166.453 133.066C163.484 131.289 161.199 128.77 159.597 125.508C157.996 122.227 157.195 118.35 157.195 113.877V113.818C157.195 109.346 157.996 105.479 159.597 102.217C161.218 98.9551 163.513 96.4453 166.482 94.6875C169.451 92.9102 172.966 92.0215 177.029 92.0215C181.072 92.0215 184.578 92.9102 187.546 94.6875C190.515 96.4648 192.8 98.9844 194.402 102.246C196.004 105.488 196.804 109.346 196.804 113.818V113.877C196.804 118.35 196.004 122.217 194.402 125.479C192.8 128.74 190.515 131.26 187.546 133.037C184.597 134.814 181.091 135.703 177.029 135.703ZM177.029 129.873C179.724 129.873 182.048 129.219 184.002 127.91C185.955 126.602 187.459 124.746 188.513 122.344C189.568 119.941 190.095 117.119 190.095 113.877V113.818C190.095 110.557 189.558 107.734 188.484 105.352C187.429 102.949 185.916 101.104 183.943 99.8145C181.99 98.5059 179.685 97.8516 177.029 97.8516C174.353 97.8516 172.029 98.4961 170.056 99.7852C168.103 101.074 166.589 102.92 165.515 105.322C164.441 107.705 163.904 110.537 163.904 113.818V113.877C163.904 117.139 164.441 119.971 165.515 122.373C166.589 124.775 168.103 126.631 170.056 127.939C172.009 129.229 174.334 129.873 177.029 129.873ZM211.264 135.703C208.666 135.703 206.43 135.215 204.555 134.238C202.7 133.242 201.254 131.885 200.219 130.166C199.204 128.428 198.637 126.436 198.52 124.189L198.491 123.838H204.965L204.995 124.072C205.092 125.146 205.385 126.123 205.873 127.002C206.362 127.861 207.045 128.555 207.924 129.082C208.823 129.59 209.916 129.844 211.205 129.844C213.373 129.844 215.024 129.209 216.157 127.939C217.309 126.67 217.885 124.824 217.885 122.402V92.7246H224.448V122.461C224.448 126.641 223.286 129.893 220.961 132.217C218.657 134.541 215.424 135.703 211.264 135.703ZM230.587 135V92.7246H257.423V98.4082H237.15V110.713H256.339V116.221H237.15V129.316H257.423V135H230.587ZM293.537 135V98.4082H280.617V92.7246H313.048V98.4082H300.129V135H293.537Z" fill="white"/>
</g>
<g style="mix-blend-mode:difference">
<path d="M263.64 134.22L263.46 134.52C262.14 133.88 261.48 132.36 261.48 129.96C261.48 127.36 262.42 124.4 264.3 121.08C266.18 117.8 268.62 114.9 271.62 112.38C274.58 109.94 277.44 108.72 280.2 108.72C282.36 108.72 284 109.34 285.12 110.58C286.28 111.82 286.86 113.54 286.86 115.74C286.86 119.82 285.58 123.92 283.02 128.04C280.46 132.08 277.1 135.4 272.94 138C268.78 140.6 264.6 141.84 260.4 141.72C257.4 141.68 255.14 140.34 253.62 137.7C252.14 135.14 251.48 132.16 251.64 128.76C252.2 119.88 256.74 111.24 265.26 102.84C263.38 101.04 262.44 98.7 262.44 95.82C262.44 92.58 263.92 89.9 266.88 87.78C269.8 85.7 273.02 84.66 276.54 84.66C280.18 84.66 283.52 85.76 286.56 87.96C293.76 84.44 300.1 82.68 305.58 82.68C306.66 82.68 307.58 83.08 308.34 83.88C309.14 84.64 309.54 85.56 309.54 86.64C309.54 89.88 307.9 93.08 304.62 96.24C301.38 99.36 297.3 101.92 292.38 103.92C287.5 105.84 282.8 106.8 278.28 106.8C274.92 106.8 272.06 106.36 269.7 105.48C265.06 110.32 261.26 115.2 258.3 120.12C255.46 124.96 253.94 129.56 253.74 133.92C253.66 135.96 254.24 137.7 255.48 139.14C256.72 140.58 258.38 141.32 260.46 141.36C264.58 141.48 268.66 140.26 272.7 137.7C276.74 135.14 280.06 131.84 282.66 127.8C285.22 123.8 286.5 119.78 286.5 115.74C286.5 113.66 285.96 112.04 284.88 110.88C283.8 109.68 282.24 109.08 280.2 109.08C277.64 109.08 274.88 110.28 271.92 112.68C269 115.08 266.58 117.92 264.66 121.2C262.78 124.52 261.84 127.44 261.84 129.96C261.84 132.12 262.44 133.54 263.64 134.22ZM291.6 95.28H291.36C290.96 93.4 290.02 91.66 288.54 90.06C281.94 94.26 275.76 99.3 270 105.18C272.24 106.02 275 106.44 278.28 106.44C282.76 106.44 287.4 105.48 292.2 103.56C297.04 101.64 301.08 99.12 304.32 96C307.56 92.88 309.18 89.76 309.18 86.64C309.18 85.6 308.8 84.76 308.04 84.12C307.32 83.48 306.4 83.16 305.28 83.16H305.1C301.38 83.16 295.94 85.42 288.78 89.94C290.18 91.5 291.12 93.28 291.6 95.28ZM263.94 95.34C263.94 95.42 263.92 95.58 263.88 95.82C263.88 96.02 263.88 96.14 263.88 96.18C263.88 98.54 264.52 100.58 265.8 102.3C271.76 96.54 278.58 91.8 286.26 88.08C283.18 86.04 279.94 85.02 276.54 85.02C273.3 85.02 270.44 86.06 267.96 88.14C265.48 90.22 264.14 92.62 263.94 95.34Z" fill="white"/>
</g>
<rect x="243" y="26" width="47" height="47" rx="23.5" fill="#F8F8F8"/>
<path d="M259.819 41.1805H274.862M274.862 41.1805V56.2235M274.862 41.1805L255.521 60.5215" stroke="#070707" stroke-width="4" stroke-linecap="round" stroke-linejoin="round"/>
</svg>
