<svg width="521" height="116" viewBox="0 0 521 116" fill="none" xmlns="http://www.w3.org/2000/svg">
<g style="mix-blend-mode:exclusion">
<path d="M16.98 79.78H17.52C21.76 79.78 26.12 77.86 30.6 74.02C32.72 72.26 34.74 70.38 36.66 68.38C38.62 66.38 40.7 64.04 42.9 61.36C50.34 52.64 55.16 47.12 57.36 44.8C63.96 37.92 68.76 34.8 71.76 35.44L72.18 35.62C68.82 35.22 65.34 37.42 61.74 42.22C60.18 44.18 58.54 46.5 56.82 49.18L51.48 57.34C49.4 60.46 47.64 62.92 46.2 64.72C42.24 69.52 37.74 73.24 32.7 75.88C27.7 78.52 22.64 79.94 17.52 80.14H17.1C13.5 80.14 10.5 78.9 8.1 76.42C5.74 73.94 4.56 70.92 4.56 67.36C4.56 62.96 6.1 59 9.18 55.48C8.98 53.92 9.1 52.18 9.54 50.26C10.22 46.94 11.64 43.68 13.8 40.48C15.96 37.24 18.62 34.34 21.78 31.78C24.98 29.18 28.72 27.12 33 25.6C37.32 24.08 41.72 23.32 46.2 23.32C49.28 23.32 52.7 23.78 56.46 24.7C60.26 25.62 63.5 26.6 66.18 27.64C69.26 28.76 72.58 29.74 76.14 30.58C79.9 31.46 83.54 31.9 87.06 31.9C92.3 31.9 96.04 30.72 98.28 28.36C99.88 26.68 100.18 25.04 99.18 23.44C98.66 22.64 97.82 21.96 96.66 21.4H97.08C99.36 22.36 100.42 24 100.26 26.32C100.14 28.76 98.78 30.94 96.18 32.86C93.38 34.94 89.88 35.98 85.68 35.98C82.76 35.98 79.58 35.36 76.14 34.12C72.66 32.84 69.56 31.46 66.84 29.98C64.04 28.46 60.84 27.08 57.24 25.84C53.6 24.56 50.22 23.92 47.1 23.92C43.54 23.92 39.92 24.54 36.24 25.78C32.6 26.98 29.28 28.62 26.28 30.7C22 33.58 18.3 37 15.18 40.96C12.1 44.92 10.28 48.46 9.72 51.58C9.44 52.86 9.36 54.04 9.48 55.12C12.88 51.36 16.88 49.48 21.48 49.48H21.66V49.84H21.48C16.92 49.84 12.94 51.76 9.54 55.6C9.82 57.76 10.68 59.5 12.12 60.82C13.56 62.1 15.54 62.74 18.06 62.74C19.94 62.74 22.04 62.24 24.36 61.24C26.72 60.24 28.94 58.9 31.02 57.22C33.18 55.5 34.94 53.42 36.3 50.98C37.74 48.54 38.46 46 38.46 43.36C38.46 40.8 37.38 39.3 35.22 38.86V38.5C37.62 38.98 38.82 40.6 38.82 43.36C38.82 45.92 38.12 48.48 36.72 51.04C35.32 53.56 33.52 55.7 31.32 57.46C29.16 59.18 26.88 60.56 24.48 61.6C22.12 62.6 19.98 63.1 18.06 63.1C15.54 63.1 13.52 62.48 12 61.24C10.48 59.96 9.56 58.18 9.24 55.9C6.32 59.3 4.86 63.12 4.86 67.36C4.86 70.84 6.02 73.76 8.34 76.12C10.66 78.56 13.54 79.78 16.98 79.78Z" fill="white"/>
</g>
<g style="mix-blend-mode:exclusion">
<path d="M61.8965 73V30.7246H68.459V48.5957H90.1387V30.7246H96.7305V73H90.1387V54.2793H68.459V73H61.8965ZM102.753 73V30.7246H129.589V36.4082H109.315V48.7129H128.505V54.2207H109.315V67.3164H129.589V73H102.753ZM149 73.7031C145.836 73.7031 143.062 73.2246 140.679 72.2676C138.316 71.3105 136.441 69.9434 135.054 68.166C133.668 66.3691 132.886 64.2305 132.711 61.75L132.681 61.3105H139.097L139.156 61.6914C139.351 62.9805 139.888 64.1035 140.767 65.0605C141.666 65.998 142.838 66.7207 144.283 67.2285C145.728 67.7363 147.388 67.9902 149.263 67.9902C151.158 67.9902 152.789 67.7266 154.156 67.1992C155.523 66.6719 156.578 65.9199 157.32 64.9434C158.082 63.9668 158.463 62.8242 158.463 61.5156V61.4863C158.463 59.7871 157.847 58.4395 156.617 57.4434C155.406 56.4277 153.394 55.6172 150.582 55.0117L145.982 54.0449C141.841 53.166 138.755 51.7598 136.724 49.8262C134.693 47.873 133.677 45.334 133.677 42.209V42.1797C133.697 39.7773 134.361 37.668 135.67 35.8516C136.978 34.0156 138.785 32.5898 141.089 31.5742C143.394 30.5391 146.041 30.0215 149.029 30.0215C151.959 30.0215 154.546 30.5195 156.793 31.5156C159.039 32.5117 160.816 33.9082 162.125 35.7051C163.433 37.4824 164.166 39.5625 164.322 41.9453L164.351 42.4141H157.935L157.877 42.0332C157.701 40.7051 157.213 39.5723 156.412 38.6348C155.63 37.6973 154.605 36.9844 153.336 36.4961C152.066 35.9883 150.591 35.7344 148.912 35.7344C147.173 35.7344 145.66 35.998 144.371 36.5254C143.082 37.0332 142.086 37.7461 141.382 38.6641C140.679 39.582 140.328 40.666 140.328 41.916V41.9453C140.328 43.5273 140.953 44.8164 142.203 45.8125C143.453 46.8086 145.396 47.5898 148.033 48.1562L152.632 49.1523C157.007 50.0703 160.181 51.4766 162.154 53.3711C164.146 55.2461 165.142 57.8145 165.142 61.0762V61.1055C165.142 63.6836 164.488 65.9199 163.179 67.8145C161.89 69.6895 160.035 71.1445 157.613 72.1797C155.211 73.1953 152.339 73.7031 149 73.7031ZM169.231 73V30.7246H196.067V36.4082H175.793V48.7129H194.983V54.2207H175.793V67.3164H196.067V73H169.231ZM208.258 73L223.639 30.7246H228.971V37.7266H227.125L215.172 73H208.258ZM215.729 61.5742L217.633 56.3008H236.734L238.639 61.5742H215.729ZM239.195 73L227.271 37.7266V30.7246H230.758L246.109 73H239.195ZM248.968 73V30.7246H265.403C268.274 30.7246 270.764 31.252 272.874 32.3066C274.983 33.3613 276.604 34.8555 277.737 36.7891C278.889 38.7227 279.466 41.0176 279.466 43.6738V43.7324C279.466 46.6035 278.733 49.1133 277.268 51.2617C275.823 53.4102 273.831 54.9141 271.292 55.7734L280.755 73H273.167L264.554 56.7988C264.475 56.7988 264.407 56.7988 264.348 56.7988C264.309 56.7988 264.251 56.7988 264.173 56.7988H255.53V73H248.968ZM255.53 51.3789H264.759C267.278 51.3789 269.231 50.7246 270.618 49.416C272.005 48.0879 272.698 46.2129 272.698 43.791V43.7324C272.698 41.4082 271.966 39.582 270.501 38.2539C269.055 36.9062 267.073 36.2324 264.554 36.2324H255.53V51.3789ZM284.023 73V30.7246H310.859V36.4082H290.586V48.7129H309.775V54.2207H290.586V67.3164H310.859V73H284.023ZM336.644 73V36.4082H323.724V30.7246H356.155V36.4082H343.236V73H336.644ZM359.717 73V30.7246H366.279V48.5957H387.959V30.7246H394.551V73H387.959V54.2793H366.279V73H359.717ZM400.573 73V30.7246H427.409V36.4082H407.136V48.7129H426.325V54.2207H407.136V67.3164H427.409V73H400.573Z" fill="white"/>
</g>
<g style="mix-blend-mode:exclusion">
<path d="M475.38 20.5C477.5 20.5 479.58 20.84 481.62 21.52C484.54 20.84 487.2 20.5 489.6 20.5C494.76 20.5 498.9 22.16 502.02 25.48C505.14 28.76 506.6 32.96 506.4 38.08C506.32 40.76 505.6 43.56 504.24 46.48C502.56 50.08 501 52.88 499.56 54.88L496.62 58.9C495.82 60.06 494.72 61.44 493.32 63.04L490.14 66.82L486.78 70.6C486.38 71.08 485.94 71.58 485.46 72.1C484.98 72.62 484.62 73.02 484.38 73.3C484.14 73.58 483.96 73.78 483.84 73.9C490.32 70.7 496.66 65.96 502.86 59.68C509.02 53.4 512.58 47.94 513.54 43.3C514.1 40.42 514.36 38.26 514.32 36.82C514.28 35.02 514.92 33.8 516.24 33.16C517.44 32.6 518.38 32.82 519.06 33.82C519.74 34.74 519.8 36.14 519.24 38.02C517.96 41.98 515.42 46.38 511.62 51.22C507.86 55.98 503.46 60.46 498.42 64.66C493.5 68.74 488.58 72 483.66 74.44C482.14 76.72 480.5 78.74 478.74 80.5C476.82 82.74 475.18 83.86 473.82 83.86C473.02 83.86 472.74 83.42 472.98 82.54C473.34 81.3 474.64 79.8 476.88 78.04C478.2 77.08 480.4 75.72 483.48 73.96C490.32 64.52 495.12 56.3 497.88 49.3C489.2 61.22 479.72 69.6 469.44 74.44C467.92 76.72 466.28 78.74 464.52 80.5C462.6 82.74 460.96 83.86 459.6 83.86C458.8 83.86 458.52 83.42 458.76 82.54C459.12 81.3 460.42 79.8 462.66 78.04C463.98 77.08 466.18 75.72 469.26 73.96C474.06 67.36 478.16 60.74 481.56 54.1C484.8 47.7 486.58 41.44 486.9 35.32C487.02 32.64 486.76 30.28 486.12 28.24C485.52 26.16 484.3 24.42 482.46 23.02C480.66 21.58 478.3 20.86 475.38 20.86C470.82 20.86 466.22 22.12 461.58 24.64C456.98 27.12 453.1 30.18 449.94 33.82C446.74 37.46 444.12 41.28 442.08 45.28C440.08 49.36 439.08 52.94 439.08 56.02C439.08 58.38 439.62 60.32 440.7 61.84C441.78 63.36 443.4 64.12 445.56 64.12C447.48 64.12 449.64 63.46 452.04 62.14C454.48 60.82 456.74 59.06 458.82 56.86C460.94 54.58 462.72 51.88 464.16 48.76C465.56 45.56 466.3 42.26 466.38 38.86C466.46 35.26 465.24 33.18 462.72 32.62L463.02 32.32C465.62 33 466.88 35.18 466.8 38.86C466.8 42.3 466.06 45.64 464.58 48.88C463.14 52.16 461.34 54.9 459.18 57.1C456.98 59.34 454.66 61.14 452.22 62.5C449.78 63.82 447.56 64.48 445.56 64.48C443.16 64.48 441.32 63.58 440.04 61.78C438.76 59.98 438.16 57.52 438.24 54.4C438.32 49.96 439.42 45.66 441.54 41.5C443.66 37.38 446.46 33.76 449.94 30.64C453.34 27.64 457.32 25.2 461.88 23.32C466.44 21.44 470.94 20.5 475.38 20.5ZM469.62 73.9C475.7 71.02 481.74 66.58 487.74 60.58C493.82 54.58 497.78 49.1 499.62 44.14C500.5 41.14 501 38.2 501.12 35.32C501.24 32.64 500.98 30.28 500.34 28.24C499.74 26.16 498.52 24.42 496.68 23.02C494.88 21.58 492.52 20.86 489.6 20.86C487.12 20.86 484.66 21.16 482.22 21.76C485.46 23.04 487.96 25.14 489.72 28.06C491.52 30.98 492.34 34.32 492.18 38.08C492.1 40.76 491.38 43.56 490.02 46.48C488.34 50.08 486.78 52.88 485.34 54.88L482.4 58.9C481.6 60.06 480.5 61.44 479.1 63.04L475.92 66.82L472.56 70.6C472.16 71.08 471.72 71.58 471.24 72.1C470.76 72.62 470.4 73.02 470.16 73.3C469.92 73.58 469.74 73.78 469.62 73.9Z" fill="white"/>
</g>
</svg>
