<svg width="61" height="116" viewBox="0 0 61 116" fill="none" xmlns="http://www.w3.org/2000/svg">
<g style="mix-blend-mode:difference">
<path d="M30.4996 75.9C36.9709 75.9 43.1771 73.3293 47.753 68.7534C52.3289 64.1775 54.8996 57.9713 54.8996 51.5C54.8996 45.0287 52.3289 38.8225 47.753 34.2466C43.1771 29.6707 36.9709 27.1 30.4996 27.1C24.0283 27.1 17.8221 29.6707 13.2462 34.2466C8.67032 38.8225 6.09961 45.0287 6.09961 51.5C6.09961 57.9713 8.67032 64.1775 13.2462 68.7534C17.8221 73.3293 24.0283 75.9 30.4996 75.9ZM30.4996 30.15C32.5035 30.15 34.791 31.9495 36.6667 35.9694C37.3286 37.3907 37.905 39.0255 38.3717 40.825H22.6276C23.0942 39.0255 23.6707 37.3907 24.3356 35.9694C26.2052 31.9495 28.4927 30.15 30.4996 30.15ZM21.5692 34.6792C20.6685 36.652 19.9706 38.7111 19.4861 40.825H12.0044C14.5789 36.3743 18.6691 32.9986 23.5273 31.3151C22.7923 32.3216 22.1365 33.4623 21.5692 34.6792ZM18.8852 43.875C18.4909 46.3974 18.2951 48.9469 18.2996 51.5C18.2996 54.1535 18.504 56.7216 18.8883 59.125H10.5526C9.62351 56.6902 9.148 54.106 9.14961 51.5C9.14961 48.816 9.64676 46.2418 10.5526 43.875H18.8852ZM19.4861 62.175C20.0229 64.4411 20.7274 66.5121 21.5692 68.3207C22.1365 69.5377 22.7923 70.6784 23.5273 71.6849C18.6691 70.0013 14.5789 66.6257 12.0044 62.175H19.4861ZM22.6276 62.175H38.3717C37.9507 63.8419 37.379 65.4672 36.6637 67.0306C34.794 71.0505 32.5065 72.85 30.4996 72.85C28.4927 72.85 26.2083 71.0505 24.3325 67.0306C23.6193 65.4669 23.0466 63.8417 22.6276 62.175ZM39.0244 59.125H21.9779C21.5559 56.6053 21.3458 54.0547 21.3496 51.5C21.3496 48.8068 21.5723 46.2387 21.9779 43.875H39.0213C39.427 46.2387 39.6496 48.8068 39.6496 51.5C39.6496 54.1931 39.427 56.7612 39.0213 59.125M41.5132 62.175H48.9948C46.4203 66.6257 42.3302 70.0013 37.4719 71.6849C38.207 70.6784 38.8627 69.5377 39.43 68.3207C40.2718 66.5121 40.9764 64.4411 41.5132 62.175ZM50.4497 59.125H42.111C42.4953 56.7216 42.6996 54.1535 42.6996 51.5C42.6996 48.8465 42.4953 46.2784 42.111 43.875H50.4466C51.3525 46.2418 51.8496 48.816 51.8496 51.5C51.8496 54.184 51.3555 56.7582 50.4497 59.125ZM37.4689 31.3151C42.3282 32.998 46.4196 36.3737 48.9948 40.825H41.5101C41.0256 38.7111 40.3276 36.652 39.427 34.6792C38.8845 33.4972 38.2287 32.3706 37.4689 31.3151Z" fill="#F8F8F8"/>
</g>
</svg>
