<svg width="600" height="116" viewBox="0 0 600 116" fill="none" xmlns="http://www.w3.org/2000/svg">
<g style="mix-blend-mode:exclusion">
<path d="M3.89648 73V30.7246H20.332C23.2031 30.7246 25.6934 31.252 27.8027 32.3066C29.9121 33.3613 31.5332 34.8555 32.666 36.7891C33.8184 38.7227 34.3945 41.0176 34.3945 43.6738V43.7324C34.3945 46.6035 33.6621 49.1133 32.1973 51.2617C30.752 53.4102 28.7598 54.9141 26.2207 55.7734L35.6836 73H28.0957L19.4824 56.7988C19.4043 56.7988 19.3359 56.7988 19.2773 56.7988C19.2383 56.7988 19.1797 56.7988 19.1016 56.7988H10.459V73H3.89648ZM10.459 51.3789H19.6875C22.207 51.3789 24.1602 50.7246 25.5469 49.416C26.9336 48.0879 27.627 46.2129 27.627 43.791V43.7324C27.627 41.4082 26.8945 39.582 25.4297 38.2539C23.9844 36.9062 22.002 36.2324 19.4824 36.2324H10.459V51.3789ZM38.952 73V30.7246H45.5145V67.3164H65.2313V73H38.952ZM69.027 73V30.7246H83.9391C88.1383 30.7246 91.7223 31.5547 94.691 33.2148C97.6793 34.8555 99.9645 37.2383 101.546 40.3633C103.148 43.4883 103.949 47.2773 103.949 51.7305V51.7891C103.949 56.2422 103.158 60.0605 101.576 63.2441C99.9938 66.4082 97.7086 68.8301 94.7203 70.5098C91.7516 72.1699 88.1578 73 83.9391 73H69.027ZM75.5895 67.3164H83.3238C86.3121 67.3164 88.8414 66.7207 90.9117 65.5293C92.982 64.3379 94.5543 62.5898 95.6285 60.2852C96.7027 57.9805 97.2398 55.168 97.2398 51.8477V51.7891C97.2398 48.4883 96.693 45.6953 95.5992 43.4102C94.525 41.1055 92.9527 39.3672 90.8824 38.1953C88.8316 37.0039 86.3121 36.4082 83.3238 36.4082H75.5895V67.3164ZM122.832 73.7031C119.668 73.7031 116.895 73.2246 114.512 72.2676C112.149 71.3105 110.274 69.9434 108.887 68.166C107.5 66.3691 106.719 64.2305 106.543 61.75L106.514 61.3105H112.93L112.989 61.6914C113.184 62.9805 113.721 64.1035 114.6 65.0605C115.498 65.998 116.67 66.7207 118.116 67.2285C119.561 67.7363 121.221 67.9902 123.096 67.9902C124.991 67.9902 126.621 67.7266 127.989 67.1992C129.356 66.6719 130.411 65.9199 131.153 64.9434C131.914 63.9668 132.295 62.8242 132.295 61.5156V61.4863C132.295 59.7871 131.68 58.4395 130.45 57.4434C129.239 56.4277 127.227 55.6172 124.414 55.0117L119.815 54.0449C115.674 53.166 112.588 51.7598 110.557 49.8262C108.526 47.873 107.51 45.334 107.51 42.209V42.1797C107.53 39.7773 108.194 37.668 109.502 35.8516C110.811 34.0156 112.618 32.5898 114.922 31.5742C117.227 30.5391 119.873 30.0215 122.862 30.0215C125.791 30.0215 128.379 30.5195 130.625 31.5156C132.871 32.5117 134.649 33.9082 135.957 35.7051C137.266 37.4824 137.998 39.5625 138.155 41.9453L138.184 42.4141H131.768L131.709 42.0332C131.534 40.7051 131.045 39.5723 130.245 38.6348C129.463 37.6973 128.438 36.9844 127.168 36.4961C125.899 35.9883 124.424 35.7344 122.745 35.7344C121.006 35.7344 119.493 35.998 118.204 36.5254C116.914 37.0332 115.918 37.7461 115.215 38.6641C114.512 39.582 114.161 40.666 114.161 41.916V41.9453C114.161 43.5273 114.786 44.8164 116.036 45.8125C117.286 46.8086 119.229 47.5898 121.866 48.1562L126.465 49.1523C130.84 50.0703 134.014 51.4766 135.987 53.3711C137.979 55.2461 138.975 57.8145 138.975 61.0762V61.1055C138.975 63.6836 138.321 65.9199 137.012 67.8145C135.723 69.6895 133.868 71.1445 131.446 72.1797C129.043 73.1953 126.172 73.7031 122.832 73.7031ZM153.393 73V30.7246H159.955V73H153.393ZM176.277 73V30.7246H182.839V48.5957H204.519V30.7246H211.111V73H204.519V54.2793H182.839V73H176.277ZM213.998 73L229.379 30.7246H234.711V37.7266H232.866L220.913 73H213.998ZM221.469 61.5742L223.373 56.3008H242.475L244.379 61.5742H221.469ZM244.936 73L233.012 37.7266V30.7246H236.498L251.85 73H244.936ZM261.71 73L246.652 30.7246H253.741L265.255 65.6758H265.402L276.915 30.7246H284.034L268.976 73H261.71ZM286.893 73V30.7246H313.729V36.4082H293.455V48.7129H312.645V54.2207H293.455V67.3164H313.729V73H286.893ZM329.054 73V30.7246H355.89V36.4082H335.617V48.7129H354.806V54.2207H335.617V67.3164H355.89V73H329.054ZM358.28 73L373.895 49.3867L372.342 54.6016V51.6426L358.426 30.7246H366.278L376.737 47.1016H379.754L375.418 49.5332L387.459 30.7246H394.901L380.545 51.8477V54.8359L378.993 49.6211L394.637 73H386.932L376.385 56.8867H373.368L377.733 54.4844L365.575 73H358.28ZM401.568 58.5566V53.0488H412.407C415.239 53.0488 417.437 52.3164 418.999 50.8516C420.581 49.3672 421.372 47.3164 421.372 44.6992V44.6406C421.372 41.9844 420.581 39.9238 418.999 38.459C417.437 36.9941 415.239 36.2617 412.407 36.2617H401.568V30.7246H414.048C416.821 30.7246 419.253 31.3105 421.343 32.4824C423.452 33.6348 425.103 35.2559 426.294 37.3457C427.486 39.416 428.081 41.8281 428.081 44.582V44.6406C428.081 47.3945 427.486 49.8262 426.294 51.9355C425.103 54.0254 423.452 55.6562 421.343 56.8281C419.253 57.9805 416.821 58.5566 414.048 58.5566H401.568ZM398.286 73V30.7246H404.849V73H398.286ZM471.021 73.7031C466.939 73.7031 463.414 72.8242 460.445 71.0664C457.476 69.2891 455.191 66.7695 453.589 63.5078C451.988 60.2266 451.187 56.3496 451.187 51.877V51.8184C451.187 47.3457 451.988 43.4785 453.589 40.2168C455.211 36.9551 457.505 34.4453 460.474 32.6875C463.443 30.9102 466.959 30.0215 471.021 30.0215C475.064 30.0215 478.57 30.9102 481.539 32.6875C484.507 34.4648 486.793 36.9844 488.394 40.2461C489.996 43.4883 490.796 47.3457 490.796 51.8184V51.877C490.796 56.3496 489.996 60.2168 488.394 63.4785C486.793 66.7402 484.507 69.2598 481.539 71.0371C478.589 72.8145 475.084 73.7031 471.021 73.7031ZM471.021 67.873C473.716 67.873 476.041 67.2188 477.994 65.9102C479.947 64.6016 481.451 62.7461 482.505 60.3438C483.56 57.9414 484.087 55.1191 484.087 51.877V51.8184C484.087 48.5566 483.55 45.7344 482.476 43.3516C481.421 40.9492 479.908 39.1035 477.935 37.8145C475.982 36.5059 473.677 35.8516 471.021 35.8516C468.345 35.8516 466.021 36.4961 464.048 37.7852C462.095 39.0742 460.582 40.9199 459.507 43.3223C458.433 45.7051 457.896 48.5371 457.896 51.8184V51.877C457.896 55.1387 458.433 57.9707 459.507 60.373C460.582 62.7754 462.095 64.6309 464.048 65.9395C466.002 67.2285 468.326 67.873 471.021 67.873ZM495.266 73V30.7246H511.702C514.573 30.7246 517.063 31.252 519.172 32.3066C521.282 33.3613 522.903 34.8555 524.036 36.7891C525.188 38.7227 525.764 41.0176 525.764 43.6738V43.7324C525.764 46.6035 525.032 49.1133 523.567 51.2617C522.121 53.4102 520.129 54.9141 517.59 55.7734L527.053 73H519.465L510.852 56.7988C510.774 56.7988 510.705 56.7988 510.647 56.7988C510.608 56.7988 510.549 56.7988 510.471 56.7988H501.829V73H495.266ZM501.829 51.3789H511.057C513.577 51.3789 515.53 50.7246 516.916 49.416C518.303 48.0879 518.996 46.2129 518.996 43.791V43.7324C518.996 41.4082 518.264 39.582 516.799 38.2539C515.354 36.9062 513.371 36.2324 510.852 36.2324H501.829V51.3789ZM530.321 73V30.7246H557.157V36.4082H536.884V48.7129H556.073V54.2207H536.884V67.3164H557.157V73H530.321ZM562.154 73V30.7246H577.066C581.266 30.7246 584.85 31.5547 587.818 33.2148C590.807 34.8555 593.092 37.2383 594.674 40.3633C596.275 43.4883 597.076 47.2773 597.076 51.7305V51.7891C597.076 56.2422 596.285 60.0605 594.703 63.2441C593.121 66.4082 590.836 68.8301 587.848 70.5098C584.879 72.1699 581.285 73 577.066 73H562.154ZM568.717 67.3164H576.451C579.439 67.3164 581.969 66.7207 584.039 65.5293C586.109 64.3379 587.682 62.5898 588.756 60.2852C589.83 57.9805 590.367 55.168 590.367 51.8477V51.7891C590.367 48.4883 589.82 45.6953 588.727 43.4102C587.652 41.1055 586.08 39.3672 584.01 38.1953C581.959 37.0039 579.439 36.4082 576.451 36.4082H568.717V67.3164Z" fill="white"/>
</g>
<g style="mix-blend-mode:difference">
<path d="M404.62 74.92C408.14 74.92 412.1 72.8 416.5 68.56C418.98 66.12 421 64 422.56 62.2C424.56 59.96 426.84 57.24 429.4 54.04C423.96 53.76 419.84 52.4 417.04 49.96C414.24 47.48 412.84 44.24 412.84 40.24C412.84 36.24 415.06 32.62 419.5 29.38C423.9 26.1 429.32 24.46 435.76 24.46C442.76 24.46 447.86 26.24 451.06 29.8C458.3 23.48 464.96 20.32 471.04 20.32C472.68 20.32 473.94 20.76 474.82 21.64C475.74 22.52 476.16 23.68 476.08 25.12C476 26.76 475.24 28.76 473.8 31.12C472.36 33.44 470.36 35.82 467.8 38.26C465.08 40.86 462.14 43.22 458.98 45.34C455.86 47.46 452.14 49.36 447.82 51.04C443.7 52.6 439.56 53.56 435.4 53.92C433.36 57.04 431.26 59.9 429.1 62.5C426.14 66.1 422.52 69.08 418.24 71.44C414 73.72 409.64 75 405.16 75.28C414.36 77.64 421.16 79.1 425.56 79.66C425.76 76.66 426.68 73.56 428.32 70.36C430.08 67.08 432.22 64.18 434.74 61.66C437.3 59.1 440.3 56.98 443.74 55.3C447.14 53.62 450.5 52.78 453.82 52.78C456.46 52.78 458.46 53.54 459.82 55.06C461.22 56.54 461.86 58.52 461.74 61C461.62 64 460.34 67.04 457.9 70.12C455.46 73.24 452.14 75.72 447.94 77.56C447.46 80.72 446 83.52 443.56 85.96C441.08 88.48 437.94 89.74 434.14 89.74C431.38 89.74 429.24 88.78 427.72 86.86C426.2 84.98 425.48 82.7 425.56 80.02C421.88 79.58 418.18 78.9 414.46 77.98C413.34 77.74 411.46 77.28 408.82 76.6L403.6 75.34C403.44 75.34 403.12 75.34 402.64 75.34C402.16 75.38 401.86 75.4 401.74 75.4H394.96C394.16 75.24 393.68 74.86 393.52 74.26C393.36 73.7 393.56 73.18 394.12 72.7C394.64 72.18 395.26 71.92 395.98 71.92C396.74 71.92 398.04 72.42 399.88 73.42C401.72 74.42 403.3 74.92 404.62 74.92ZM429.7 53.68C429.9 53.36 430.62 52.46 431.86 50.98C433.1 49.5 433.88 48.54 434.2 48.1C434.92 47.26 435.64 46.38 436.36 45.46L438.76 42.58C438.92 42.42 439.1 42.22 439.3 41.98C439.54 41.7 439.82 41.38 440.14 41.02C440.46 40.62 440.76 40.28 441.04 40C442.4 38.4 443.22 37.46 443.5 37.18C445.82 34.74 448.24 32.36 450.76 30.04C447.64 26.56 442.64 24.82 435.76 24.82C429.48 24.82 424.14 26.42 419.74 29.62C415.38 32.78 413.2 36.32 413.2 40.24C413.2 44.16 414.6 47.32 417.4 49.72C420.2 52.12 424.3 53.44 429.7 53.68ZM433.06 80.2C438.3 80.2 443.14 79.24 447.58 77.32L447.7 76.24C447.78 74.68 447.48 73.42 446.8 72.46C446.16 71.46 445.2 70.96 443.92 70.96V70.6C445.32 70.6 446.38 71.12 447.1 72.16C447.82 73.2 448.14 74.56 448.06 76.24C448.06 76.28 448.04 76.42 448 76.66C448 76.9 448 77.06 448 77.14C452.12 75.26 455.34 72.84 457.66 69.88C460.02 66.8 461.26 63.84 461.38 61C461.5 58.64 460.9 56.74 459.58 55.3C458.26 53.86 456.34 53.14 453.82 53.14C450.42 53.14 446.7 54.52 442.66 57.28C438.78 59.92 435.34 63.38 432.34 67.66C429.46 71.74 427.74 75.8 427.18 79.84C429.14 80 431.1 80.12 433.06 80.2ZM451.6 31.12C448.48 34.24 445.7 37.74 443.26 41.62L439.42 47.62L435.7 53.5C440.5 52.94 445.34 51.46 450.22 49.06C455.3 46.54 459.6 43.82 463.12 40.9C466.84 37.82 469.82 34.86 472.06 32.02C474.46 29.02 475.68 26.72 475.72 25.12C475.8 23.84 475.4 22.78 474.52 21.94C473.68 21.1 472.52 20.68 471.04 20.68C466.28 20.68 460.92 23.12 454.96 28C453.56 29.2 452.52 30.14 451.84 30.82C453.28 32.78 454.12 35.32 454.36 38.44H454C453.76 35.44 452.96 33 451.6 31.12ZM433.06 80.56C431.02 80.48 429.04 80.36 427.12 80.2C427.12 80.28 427.1 80.46 427.06 80.74C427.06 81.02 427.06 81.2 427.06 81.28C426.94 83.84 427.48 85.82 428.68 87.22C429.88 88.66 431.7 89.38 434.14 89.38C437.78 89.42 440.78 88.24 443.14 85.84C445.54 83.4 447 80.7 447.52 77.74C443.08 79.62 438.26 80.56 433.06 80.56Z" fill="white"/>
</g>
</svg>
